<?xml version="1.0" encoding="UTF-8" standalone="no"?>
<!-- Uploaded to: SVG Repo, www.svgrepo.com, Generator: SVG Repo Mixer Tools -->

<svg
   height="800"
   width="800"
   version="1.1"
   id="Layer_1"
   viewBox="0 0 512 512"
   xml:space="preserve"
   xmlns="http://www.w3.org/2000/svg"
   xmlns:svg="http://www.w3.org/2000/svg"><defs
   id="defs13" />
<path
   style="fill:#ffdc64;stroke-width:0.681802"
   d="M 385.5901,424.46644 H 126.4099 c -21.4713,0 -38.877025,-17.40572 -38.877025,-38.87703 V 126.4099 C 87.533556,104.9386 104.9386,87.533556 126.4099,87.533556 h 259.1802 c 21.4713,0 38.87703,17.405724 38.87703,38.877034 V 385.5901 c -6.9e-4,21.4713 -17.40573,38.87634 -38.87703,38.87634 z"
   id="path1" />
<path
   style="fill:#ffc850;stroke-width:0.681802"
   d="M 424.46644,262.07486 V 249.92514 H 262.07486 V 87.533556 H 249.92514 V 249.92514 H 145.84876 V 106.97173 c 0,-7.089377 1.92813,-13.715128 5.24374,-19.438174 h -24.6826 c -21.4713,0 -38.876344,17.405044 -38.876344,38.876344 v 259.1802 c 0,21.4713 17.405724,38.87703 38.877034,38.87703 H 385.5901 c 14.38124,0 26.90867,-7.82982 33.63329,-19.43818 H 262.07486 V 262.07486 Z M 184.72579,405.02827 c -21.47131,0 -38.87703,-17.40572 -38.87703,-38.87703 V 262.07486 h 104.07707 v 142.95341 z"
   id="path2" />
<path
   style="fill:#e4eaf8;stroke-width:0.681802"
   d="M 385.5901,424.46644 H 262.07486 V 262.07486 H 424.46644 V 385.5901 c 0,21.4713 -17.40504,38.87634 -38.87634,38.87634 z"
   id="path3" />
<path
   style="fill:#d5dced;stroke-width:0.681802"
   d="m 262.07486,405.02827 v 19.43817 H 385.5901 c 14.38124,0 26.90867,-7.82981 33.63329,-19.43817 z"
   id="path4" />
<path
   d="M 385.5901,81.458701 H 126.4099 c -24.78622,0 -44.951199,20.164979 -44.951199,44.951199 v 259.1802 c 0,24.78622 20.164979,44.9512 44.951199,44.9512 h 259.1802 c 24.78622,0 44.9512,-20.16498 44.9512,-44.9512 V 126.4099 c 0,-24.78622 -20.16498,-44.951199 -44.9512,-44.951199 z M 418.39227,385.5901 c 0,18.08752 -14.71465,32.80217 -32.80217,32.80217 H 126.4099 c -18.08752,0 -32.80217,-14.71465 -32.80217,-32.80217 V 126.4099 c 0,-18.08752 14.71465,-32.80217 32.80217,-32.80217 h 259.1802 c 18.08752,0 32.80217,14.71465 32.80217,32.80217 z"
   id="path5"
   style="stroke-width:0.681802" />
<path
   d="m 398.54911,249.92514 h -12.96106 c -3.35446,0 -6.07485,2.71971 -6.07485,6.07486 0,3.35515 2.7197,6.07486 6.07485,6.07486 h 12.96106 c 3.35446,0 6.07485,-2.71971 6.07485,-6.07486 0,-3.35515 -2.72039,-6.07486 -6.07485,-6.07486 z"
   id="path6"
   style="stroke-width:0.681802" />
<path
   d="m 359.67071,262.07486 c 3.35447,0 6.07486,-2.71971 6.07486,-6.07486 0,-3.35515 -2.71971,-6.07486 -6.07486,-6.07486 H 262.07486 V 152.3286 c 0,-3.35446 -2.71971,-6.07485 -6.07486,-6.07485 -3.35515,0 -6.07486,2.71971 -6.07486,6.07485 v 97.59654 H 113.45089 c -3.35446,0 -6.07485,2.71971 -6.07485,6.07486 0,3.35515 2.71971,6.07486 6.07485,6.07486 h 136.47425 v 136.47425 c 0,3.35446 2.71971,6.07485 6.07486,6.07485 3.35515,0 6.07486,-2.71971 6.07486,-6.07485 V 262.07486 Z"
   id="path7"
   style="stroke-width:0.681802" />
<path
   d="m 256,132.4868 c 3.35447,0 6.07486,-2.7197 6.07486,-6.07485 v -12.96106 c 0,-3.35446 -2.71971,-6.07485 -6.07486,-6.07485 -3.35515,0 -6.07486,2.71971 -6.07486,6.07485 v 12.96174 c 0,3.35583 2.72039,6.07417 6.07486,6.07417 z"
   id="path8"
   style="stroke-width:0.681802" />
<path
   d="m 132.88975,177.84095 h 32.80217 v 32.80218 c 0,3.35446 2.71971,6.07485 6.07486,6.07485 3.35446,0 6.07485,-2.71971 6.07485,-6.07485 v -32.80218 h 32.80218 c 3.35446,0 6.07485,-2.71971 6.07485,-6.07485 0,-3.35447 -2.71971,-6.07486 -6.07485,-6.07486 h -32.80218 v -32.80149 c 0,-3.35447 -2.7197,-6.07486 -6.07485,-6.07486 -3.35447,0 -6.07486,2.71971 -6.07486,6.07486 v 32.80217 h -32.80217 c -3.35447,0 -6.07486,2.71971 -6.07486,6.07486 0,3.35446 2.71971,6.07417 6.07486,6.07417 z"
   id="path9"
   style="stroke-width:0.681802" />
<path
   d="m 301.35619,177.84095 h 77.75406 c 3.35447,0 6.07486,-2.71971 6.07486,-6.07485 0,-3.35447 -2.71971,-6.07486 -6.07486,-6.07486 h -77.75406 c -3.35446,0 -6.07485,2.71971 -6.07485,6.07486 6.8e-4,3.35514 2.72039,6.07485 6.07485,6.07485 z"
   id="path10"
   style="stroke-width:0.681802" />
<path
   d="m 379.11025,314.72019 h -77.75406 c -3.35446,0 -6.07485,2.71971 -6.07485,6.07486 0,3.35446 2.71971,6.07485 6.07485,6.07485 h 77.75406 c 3.35447,0 6.07486,-2.7197 6.07486,-6.07485 0,-3.35515 -2.71971,-6.07486 -6.07486,-6.07486 z"
   id="path11"
   style="stroke-width:0.681802" />
<path
   d="m 379.11025,353.59722 h -77.75406 c -3.35446,0 -6.07485,2.71971 -6.07485,6.07486 0,3.35446 2.71971,6.07485 6.07485,6.07485 h 77.75406 c 3.35447,0 6.07486,-2.71971 6.07486,-6.07485 0,-3.35515 -2.71971,-6.07486 -6.07486,-6.07486 z"
   id="path12"
   style="stroke-width:0.681802" />
<path
   d="m 208.45931,303.54069 c -2.37199,-2.37199 -6.21871,-2.37199 -8.59002,0 l -28.10251,28.10251 -28.10251,-28.10251 c -2.37199,-2.37199 -6.21872,-2.37199 -8.59003,0 -2.37199,2.37199 -2.37199,6.21871 0,8.59002 l 28.10252,28.10251 -28.10252,28.10251 c -2.37199,2.37199 -2.37199,6.21872 0,8.59003 1.18566,1.18633 2.74085,1.7795 4.29536,1.7795 1.5545,0 3.10901,-0.59317 4.29535,-1.7795 l 28.10251,-28.10252 28.10251,28.10252 c 1.18566,1.18565 2.74085,1.7795 4.29536,1.7795 1.5545,0 3.10901,-0.59317 4.29535,-1.7795 2.37199,-2.37199 2.37199,-6.21872 0,-8.59003 l -28.10252,-28.10251 28.10252,-28.10251 c 2.37062,-2.37131 2.37062,-6.21872 -0.001,-8.59002 z"
   id="path13"
   style="stroke-width:0.681802" />
</svg>
