<?xml version="1.0" encoding="UTF-8" standalone="no"?>
<!-- Created with Inkscape (http://www.inkscape.org/) -->

<svg
   width="1304.774"
   height="891.62994"
   viewBox="0 0 1304.774 891.62994"
   version="1.1"
   id="svg1"
   xmlns:xlink="http://www.w3.org/1999/xlink"
   xmlns="http://www.w3.org/2000/svg"
   xmlns:svg="http://www.w3.org/2000/svg">
  <defs
     id="defs1">
    <linearGradient
       id="linearGradient20">
      <stop
         style="stop-color:#a9fff0;stop-opacity:1;"
         offset="0"
         id="stop20" />
      <stop
         style="stop-color:#ff81c2;stop-opacity:0;"
         offset="1"
         id="stop21" />
    </linearGradient>
    <linearGradient
       id="linearGradient6">
      <stop
         style="stop-color:#f6d5ff;stop-opacity:1"
         offset="0"
         id="stop7" />
      <stop
         style="stop-color:#aaccff;stop-opacity:1"
         offset="1"
         id="stop8" />
    </linearGradient>
    <linearGradient
       id="swatch6">
      <stop
         style="stop-color:#c6afe9;stop-opacity:1;"
         offset="0"
         id="stop6" />
    </linearGradient>
    <linearGradient
       xlink:href="#linearGradient6"
       id="linearGradient8"
       x1="-31.199743"
       y1="826.44312"
       x2="977.54095"
       y2="394.67651"
       gradientUnits="userSpaceOnUse" />
    <linearGradient
       xlink:href="#linearGradient20"
       id="linearGradient21"
       x1="636.17041"
       y1="553.08142"
       x2="1941.4167"
       y2="461.62436"
       gradientUnits="userSpaceOnUse" />
  </defs>
  <g
     id="layer1"
     transform="translate(-636.64278,-15.809389)">
    <path
       style="fill:url(#linearGradient8);fill-opacity:1;stroke:none;stroke-width:67.5213;stroke-linejoin:bevel;stroke-miterlimit:0;paint-order:markers fill stroke"
       d="M 0.67247821,277.01605 C 12.60232,222.89144 19.12293,201.25196 116.02539,169.28295 195.13324,143.18455 -4.425704,442.97489 148.00354,424.94594 263.69783,411.2619 421.74192,281.48448 578.91954,234.36804 776.76351,175.06122 964.34219,197.81378 964.34219,197.81378 1022.0969,275.67147 392.32645,398.73893 486.92624,515.45707 559.35763,604.82362 -9.7789068,785.9489 252.02237,764.62636 514.01238,743.28844 469.80774,878.7497 469.80774,878.7497 c 0,0 -57.06167,199.7158 -466.0036288,203.5199 -9.5098665,0.088 -3.13163299,-805.25355 -3.13163299,-805.25355 z"
       id="path1" />
    <path
       style="fill:url(#linearGradient21);stroke:none;stroke-width:67.5213;stroke-linejoin:bevel;stroke-miterlimit:0;paint-order:markers fill stroke"
       d="m 772.00497,497.63387 c -64.88237,19.72171 -38.35054,-17.56046 -75.31754,8.06975 -321.60508,222.97735 752.01217,-77.49864 782.76457,-67.24783 0,0 -836.26351,671.43661 -118.3562,406.17685 216.7742,-80.09596 411.5567,45.7285 411.5567,45.7285 0,0 94.147,83.3873 137.1856,-118.35616 43.0386,-201.74346 29.589,-755.865499 29.589,-755.865499 0,0 -231.7531,-13.3106024 -258.2316,129.115819 -83.3098,448.11856 -210.5429,-67.448085 -416.9365,180.22415 -40.3487,48.41843 -492.25403,172.15442 -492.25403,172.15442 z"
       id="path8" />
  </g>
</svg>
